<svg xmlns="http://www.w3.org/2000/svg" xmlns:xlink="http://www.w3.org/1999/xlink" width="500" zoomAndPan="magnify" viewBox="0 0 375 374.999991" height="500" preserveAspectRatio="xMidYMid meet" version="1.2"><defs><clipPath id="23643bb8a9"><path d="M 112.5 112.5 L 262.5 112.5 L 262.5 262.5 L 112.5 262.5 Z M 112.5 112.5 "/></clipPath></defs><g id="a5b2ffc30b"><rect x="0" width="375" y="0" height="374.999991" style="fill:#ffffff;fill-opacity:1;stroke:none;"/><rect x="0" width="375" y="0" height="374.999991" style="fill:#ffffff;fill-opacity:1;stroke:none;"/><g clip-rule="nonzero" clip-path="url(#23643bb8a9)"><path style=" stroke:none;fill-rule:nonzero;fill:#ffffff;fill-opacity:1;" d="M 112.5 112.5 L 262.5 112.5 L 262.5 262.5 L 112.5 262.5 Z M 112.5 112.5 "/></g><path style=" stroke:none;fill-rule:evenodd;fill:#323232;fill-opacity:1;" d="M 157.8125 127.425781 C 165.929688 125.621094 175.777344 125 187.5 125 C 199.222656 125 209.070312 125.621094 217.1875 127.425781 C 225.375 129.242188 232.179688 132.351562 237.414062 137.585938 C 242.648438 142.820312 245.757812 149.625 247.578125 157.8125 C 249.378906 165.929688 250 175.777344 250 187.5 C 250 199.222656 249.378906 209.070312 247.578125 217.1875 C 245.757812 225.375 242.648438 232.179688 237.414062 237.414062 C 232.179688 242.648438 225.375 245.757812 217.1875 247.578125 C 209.070312 249.378906 199.222656 250 187.5 250 C 175.777344 250 165.929688 249.378906 157.8125 247.578125 C 149.625 245.757812 142.820312 242.648438 137.585938 237.414062 C 132.351562 232.179688 129.242188 225.375 127.425781 217.1875 C 125.621094 209.070312 125 199.222656 125 187.5 C 125 175.777344 125.621094 165.929688 127.425781 157.8125 C 129.242188 149.625 132.351562 142.820312 137.585938 137.585938 C 142.820312 132.351562 149.625 129.242188 157.8125 127.425781 Z M 210.667969 170.582031 C 213.109375 173.019531 213.109375 176.980469 210.667969 179.417969 L 187.652344 202.4375 C 184.117188 205.972656 178.382812 205.972656 174.847656 202.4375 L 181.25 196.035156 L 174.847656 202.4375 L 164.332031 191.917969 C 161.890625 189.480469 161.890625 185.519531 164.332031 183.082031 C 166.769531 180.640625 170.730469 180.640625 173.167969 183.082031 L 181.25 191.160156 L 201.832031 170.582031 C 204.269531 168.140625 208.230469 168.140625 210.667969 170.582031 Z M 210.667969 170.582031 "/><rect x="0" width="375" y="0" height="374.999991" style="fill:#ffffff;fill-opacity:1;stroke:none;"/><path style=" stroke:none;fill-rule:evenodd;fill:#428af5;fill-opacity:1;" d="M 113.28125 37.308594 C 133.574219 32.800781 158.191406 31.25 187.5 31.25 C 216.808594 31.25 241.425781 32.800781 261.71875 37.308594 C 282.1875 41.859375 299.199219 49.625 312.289062 62.710938 C 325.375 75.800781 333.140625 92.8125 337.691406 113.28125 C 342.199219 133.574219 343.75 158.191406 343.75 187.5 C 343.75 216.808594 342.199219 241.425781 337.691406 261.71875 C 333.140625 282.1875 325.375 299.199219 312.289062 312.289062 C 299.199219 325.375 282.1875 333.140625 261.71875 337.691406 C 241.425781 342.199219 216.808594 343.75 187.5 343.75 C 158.191406 343.75 133.574219 342.199219 113.28125 337.691406 C 92.8125 333.140625 75.800781 325.375 62.710938 312.289062 C 49.625 299.199219 41.859375 282.1875 37.308594 261.71875 C 32.800781 241.425781 31.25 216.808594 31.25 187.5 C 31.25 158.191406 32.800781 133.574219 37.308594 113.28125 C 41.859375 92.8125 49.625 75.800781 62.710938 62.710938 C 75.800781 49.625 92.8125 41.859375 113.28125 37.308594 Z M 245.421875 145.203125 C 251.523438 151.304688 251.523438 161.195312 245.421875 167.296875 L 187.878906 224.84375 C 179.039062 233.679688 164.710938 233.679688 155.871094 224.84375 L 171.875 208.835938 L 155.871094 224.84375 L 129.578125 198.546875 C 123.472656 192.445312 123.472656 182.554688 129.578125 176.453125 C 135.679688 170.351562 145.570312 170.351562 151.671875 176.453125 L 171.875 196.652344 L 223.328125 145.203125 C 229.429688 139.097656 239.320312 139.097656 245.421875 145.203125 Z M 245.421875 145.203125 "/></g></svg>